<svg width="32" height="32" viewBox="0 0 32 32" fill="none" xmlns="http://www.w3.org/2000/svg">
<path d="M20.5833 9.63636V7.81818C20.5833 7.33597 20.3902 6.87351 20.0464 6.53253C19.7025 6.19156 19.2362 6 18.75 6H13.25C12.7638 6 12.2975 6.19156 11.9536 6.53253C11.6098 6.87351 11.4167 7.33597 11.4167 7.81818V9.63636M27 15.808C23.6571 17.7261 19.8621 18.7333 16 18.7273C12.138 18.7334 8.3431 17.7266 5 15.8091M14.1667 15.0909H17.8333M5.91667 9.63636H26.0833C26.5896 9.63636 27 10.0434 27 10.5455V25.0909C27 25.593 26.5896 26 26.0833 26H5.91667C5.41041 26 5 25.593 5 25.0909V10.5455C5 10.0434 5.41041 9.63636 5.91667 9.63636Z" stroke="black" stroke-width="2" stroke-linecap="round" stroke-linejoin="round"/>
</svg>
