<svg width="32" height="32" viewBox="0 0 32 32" fill="none" xmlns="http://www.w3.org/2000/svg">
<path d="M28 16C28 22.6274 22.6274 28 16 28M28 16C28 9.37258 22.6274 4 16 4M28 16H4M16 28C9.37258 28 4 22.6274 4 16M16 28C15.8656 28 15.7326 27.9723 15.6096 27.9182C15.4865 27.8642 15.376 27.7852 15.285 27.6863C12.6662 24.865 11 20.6825 11 16C11 11.3175 12.6662 7.135 15.285 4.31375C15.376 4.2148 15.4865 4.13581 15.6096 4.08178C15.7326 4.02774 15.8656 4 16 4M16 28C16.1344 28 16.2674 27.9723 16.3904 27.9182C16.5135 27.8642 16.624 27.7852 16.715 27.6863C19.3338 24.865 21 20.6825 21 16C21 11.3175 19.3338 7.135 16.715 4.31375C16.624 4.2148 16.5135 4.13581 16.3904 4.08178C16.2674 4.02774 16.1344 4 16 4M4 16C4 9.37258 9.37258 4 16 4" stroke="black" stroke-width="2" stroke-linecap="round" stroke-linejoin="round"/>
</svg>
