<svg width="77" height="21" viewBox="0 0 77 21" fill="none" xmlns="http://www.w3.org/2000/svg">
<path d="M4.77001 0.399999V16.304H12.246V20H0.906014V0.399999H4.77001ZM29.45 17.452C27.462 19.412 25.054 20.392 22.226 20.392C19.398 20.392 16.99 19.412 15.002 17.452C13.042 15.464 12.062 13.056 12.062 10.2C12.062 7.344 13.042 4.936 15.002 2.976C16.99 0.987999 19.398 0.0079987 22.226 0.0079987C25.054 0.0079987 27.462 0.987999 29.45 2.976C31.438 4.936 32.418 7.344 32.418 10.2C32.418 13.056 31.438 15.464 29.45 17.452ZM17.718 14.82C18.922 16.024 20.434 16.612 22.226 16.612C24.018 16.612 25.53 16.024 26.734 14.82C27.938 13.616 28.554 12.076 28.554 10.2C28.554 8.324 27.938 6.784 26.734 5.58C25.53 4.376 24.018 3.76 22.226 3.76C20.434 3.76 18.922 4.376 17.718 5.58C16.514 6.784 15.898 8.324 15.898 10.2C15.898 12.076 16.514 13.616 17.718 14.82ZM44.2618 9.472H54.0898V10.984C54.0898 13.784 53.1938 16.052 51.4018 17.788C49.6098 19.524 47.2858 20.392 44.4578 20.392C41.4338 20.392 38.9138 19.412 36.9258 17.452C34.9378 15.464 33.9578 13.056 33.9578 10.228C33.9578 7.372 34.9378 4.964 36.8978 2.976C38.8858 0.987999 41.3218 0.0079987 44.2338 0.0079987C47.9018 0.0079987 51.0938 1.8 52.7738 4.572L49.4698 6.476C48.5458 4.88 46.5298 3.76 44.2058 3.76C42.3298 3.76 40.7898 4.376 39.5858 5.608C38.3818 6.812 37.7938 8.352 37.7938 10.228C37.7938 12.076 38.4098 13.616 39.6138 14.82C40.8458 16.024 42.4698 16.612 44.4858 16.612C47.4818 16.612 49.4978 15.212 50.1978 12.888H44.2618V9.472ZM73.0502 17.452C71.0622 19.412 68.6542 20.392 65.8262 20.392C62.9982 20.392 60.5902 19.412 58.6022 17.452C56.6422 15.464 55.6622 13.056 55.6622 10.2C55.6622 7.344 56.6422 4.936 58.6022 2.976C60.5902 0.987999 62.9982 0.0079987 65.8262 0.0079987C68.6542 0.0079987 71.0622 0.987999 73.0502 2.976C75.0382 4.936 76.0182 7.344 76.0182 10.2C76.0182 13.056 75.0382 15.464 73.0502 17.452ZM61.3182 14.82C62.5222 16.024 64.0342 16.612 65.8262 16.612C67.6182 16.612 69.1302 16.024 70.3342 14.82C71.5382 13.616 72.1542 12.076 72.1542 10.2C72.1542 8.324 71.5382 6.784 70.3342 5.58C69.1302 4.376 67.6182 3.76 65.8262 3.76C64.0342 3.76 62.5222 4.376 61.3182 5.58C60.1142 6.784 59.4982 8.324 59.4982 10.2C59.4982 12.076 60.1142 13.616 61.3182 14.82Z" fill="black"/>
</svg>
